<?xml version="1.0" encoding="UTF-8" standalone="no"?>
<!DOCTYPE svg PUBLIC "-//W3C//DTD SVG 1.1//EN"
        "http://www.w3.org/Graphics/SVG/1.1/DTD/svg11.dtd">
<!---
 Licensed to the Apache Software Foundation (ASF) under one
 or more contributor license agreements.  See the NOTICE file
 distributed with this work for additional information
 regarding copyright ownership.  The ASF licenses this file
 to you under the Apache License, Version 2.0 (the
 "License"); you may not use this file except in compliance
 with the License.  You may obtain a copy of the License at

     http://www.apache.org/licenses/LICENSE-2.0

 Unless required by applicable law or agreed to in writing, software
 distributed under the License is distributed on an "AS IS" BASIS,
 WITHOUT WARRANTIES OR CONDITIONS OF ANY KIND, either express or implied.
 See the License for the specific language governing permissions and
 limitations under the License.
-->

<!-- Generated by graphviz
digraph G {
    { rank=same root -> start [style=invis] }
    start [label="start/end"]

    tra [label = "Sparse\n0x0DE"; color = "lightgrey"; fontcolor = lightgray]
    trav [label = "Chain\n0x0B8"]
    trave [label = "0x0B9"]
    traver [label = "0x0BA"]
    travers [label = "0x0BB"]
    traverse [label = "contentArray[3]"]

    tra -> trav [label = " v"; color = "lightgrey"; fontcolor = lightgray]
    trav -> trave [label = " e"]
    trave -> traver [label = " r"]
    traver -> travers [label = " s"]
    travers -> traverse [label = " e"]

    tree [label = "contentArray[1]"]
    tre [label = "Chain\n0x03B"]
    trie [label = "contentArray[2]"]
    tri [label = "Chain\n0x05B"]

    tr [label = "Sparse\n0x07E"]

    t [label = "0x09B"]
    root [label = "Chain\n0x9A"]

    root -> t [label = " t"]
    t -> tr [label = " r"]

    tractor [label = "contentArray[0]"; color = "lightgrey"; fontcolor = lightgray]
    tracto [label = "0x01B"; color = "lightgrey"; fontcolor = lightgray]
    tract [label = "0x01A"; color = "lightgrey"; fontcolor = lightgray]
    trac [label = "0x019"; color = "lightgrey"; fontcolor = lightgray]

    tr -> tra [label = " a"; color = "lightgrey"; fontcolor = lightgray]
    tra -> trac [label = " c"; color = "lightgrey"; fontcolor = lightgray]
    trac -> tract [label = " t"; color = "lightgrey"; fontcolor = lightgray]
    tract -> tracto [label = " o"; color = "lightgrey"; fontcolor = lightgray]
    tracto -> tractor [label = " r"; color = "lightgrey"; fontcolor = lightgray]

    tr -> tre [label = " e"]
    tre -> tree [label = " e"]

    tr -> tri [label = " i"]
    tri -> trie [label = " e"]

    subgraph path {
        edge [color = "lightblue"; fontcolor="blue"; arrowhead="vee"]
        node [color = "blue"; fontcolor="blue"]

        tra2 [label = "Chain\n0x0B7"]

        start -> root

        root -> t [label = " t"]
        t -> tr [label = " r"]
        tr -> tra [label = " a"]
        tra -> trac [label = " c"]
        trac -> tract [label = " t"]
        tract -> tracto [label = " o"]
        tracto -> tractor [label = " r"]
    }

    {rank=same tra -> tra2 -> tre -> tri [style=invis]}
    {rank=same trac -> trav -> tree -> trie [style=invis]}

    {
        edge [color = "blue"]
        tr -> tra2 [label = " a"]
        tra2 -> trav [label = " v"]
    }

    subgraph back {
        edge [color = "pink"; fontcolor="red"; arrowhead="vee"; constrain="false"]

        tractor -> tracto [label = " NONE"]
        tracto -> tract [label = " NONE"]
        tract -> trac [label = " NONE"]
        trac -> tra2 [label = " NONE"]
        tra2 -> tr [label = "0x0B7"]
        tr -> t [label = "0x07E"]
        t -> root [label = "0x09B"]
        root -> start [label = "0x09A"]
    }
}
 -->
<svg xmlns="http://www.w3.org/2000/svg" xmlns:xlink="http://www.w3.org/1999/xlink" width="606pt" height="846pt" viewBox="0.00 0.00 606.00 846.00">
    <g id="graph0" class="graph" transform="scale(1 1) rotate(0) translate(4 841.73)">
        <title>G</title>
        <polygon fill="white" stroke="none" points="-4,4 -4,-841.73 602.48,-841.73 602.48,4 -4,4"/>
        <!-- root -->
        <g id="node1" class="node">
            <title>root</title>
            <ellipse fill="none" stroke="black" cx="228.24" cy="-808.31" rx="34.96" ry="29.42"/>
            <text xml:space="preserve" text-anchor="middle" x="228.24" y="-812.51" font-family="Times,serif" font-size="14.00">Chain</text>
            <text xml:space="preserve" text-anchor="middle" x="228.24" y="-795.71" font-family="Times,serif" font-size="14.00">0x9A</text>
        </g>
        <!-- start -->
        <g id="node2" class="node">
            <title>start</title>
            <ellipse fill="none" stroke="black" cx="363.24" cy="-808.31" rx="44.29" ry="18"/>
            <text xml:space="preserve" text-anchor="middle" x="363.24" y="-804.11" font-family="Times,serif" font-size="14.00">start/end</text>
        </g>
        <!-- root&#45;&gt;start -->
        <!-- root&#45;&gt;start -->
        <g id="edge41" class="edge">
            <title>root-&gt;start</title>
            <path fill="none" stroke="pink" d="M263.36,-808.31C276.81,-808.31 292.5,-808.31 307.41,-808.31"/>
            <polygon fill="pink" stroke="pink" points="317.39,-808.31 307.39,-812.81 313.61,-808.31 307.39,-808.31 307.39,-808.31 307.39,-808.31 313.61,-808.31 307.39,-803.81 317.39,-808.31"/>
            <text xml:space="preserve" text-anchor="middle" x="291.08" y="-815.51" font-family="Times,serif" font-size="14.00" fill="red">0x09A</text>
        </g>
        <!-- t -->
        <g id="node14" class="node">
            <title>t</title>
            <ellipse fill="none" stroke="black" cx="228.24" cy="-708.09" rx="36.79" ry="18"/>
            <text xml:space="preserve" text-anchor="middle" x="228.24" y="-703.89" font-family="Times,serif" font-size="14.00">0x09B</text>
        </g>
        <!-- root&#45;&gt;t -->
        <g id="edge7" class="edge">
            <title>root-&gt;t</title>
            <path fill="none" stroke="black" d="M208.75,-783.34C201.62,-771.67 196.29,-757.32 200.85,-744.09 202.06,-740.59 203.78,-737.17 205.77,-733.93"/>
            <polygon fill="black" stroke="black" points="208.45,-736.2 211.46,-726.04 202.77,-732.1 208.45,-736.2"/>
            <text xml:space="preserve" text-anchor="middle" x="204.55" y="-748.29" font-family="Times,serif" font-size="14.00"> t</text>
        </g>
        <!-- root&#45;&gt;t -->
        <g id="edge19" class="edge">
            <title>root-&gt;t</title>
            <path fill="none" stroke="lightblue" d="M228.24,-778.64C228.24,-765.72 228.24,-750.5 228.24,-737.61"/>
            <polygon fill="lightblue" stroke="lightblue" points="228.24,-727.76 232.74,-737.76 228.24,-731.54 228.24,-737.76 228.24,-737.76 228.24,-737.76 228.24,-731.54 223.74,-737.76 228.24,-727.76"/>
            <text xml:space="preserve" text-anchor="middle" x="231.94" y="-748.29" font-family="Times,serif" font-size="14.00" fill="blue"> t</text>
        </g>
        <!-- start&#45;&gt;root -->
        <g id="edge18" class="edge">
            <title>start-&gt;root</title>
            <path fill="none" stroke="lightblue" d="M319.28,-805.65C307.13,-805.2 293.95,-804.97 281.78,-805.31 279.37,-805.38 276.88,-805.46 274.38,-805.56"/>
            <polygon fill="lightblue" stroke="lightblue" points="264.58,-806 274.37,-801.06 268.36,-805.83 274.57,-805.55 274.57,-805.55 274.57,-805.55 268.36,-805.83 274.78,-810.05 264.58,-806"/>
        </g>
        <!-- tra -->
        <g id="node3" class="node">
            <title>tra</title>
            <ellipse fill="none" stroke="lightgrey" cx="119.24" cy="-496.25" rx="39.36" ry="29.42"/>
            <text xml:space="preserve" text-anchor="middle" x="119.24" y="-500.45" font-family="Times,serif" font-size="14.00" fill="lightgray">Sparse</text>
            <text xml:space="preserve" text-anchor="middle" x="119.24" y="-483.65" font-family="Times,serif" font-size="14.00" fill="lightgray">0x0DE</text>
        </g>
        <!-- trav -->
        <g id="node4" class="node">
            <title>trav</title>
            <ellipse fill="none" stroke="black" cx="197.24" cy="-384.62" rx="37.72" ry="29.42"/>
            <text xml:space="preserve" text-anchor="middle" x="197.24" y="-388.82" font-family="Times,serif" font-size="14.00">Chain</text>
            <text xml:space="preserve" text-anchor="middle" x="197.24" y="-372.02" font-family="Times,serif" font-size="14.00">0x0B8</text>
        </g>
        <!-- tra&#45;&gt;trav -->
        <g id="edge2" class="edge">
            <title>tra-&gt;trav</title>
            <path fill="none" stroke="lightgrey" d="M127.45,-467.07C131.57,-455.59 137.3,-442.57 144.74,-432.03 149.52,-425.27 155.47,-418.82 161.63,-413"/>
            <polygon fill="lightgrey" stroke="lightgrey" points="163.8,-415.75 168.94,-406.48 159.14,-410.53 163.8,-415.75"/>
            <text xml:space="preserve" text-anchor="middle" x="149.99" y="-436.23" font-family="Times,serif" font-size="14.00" fill="lightgray"> v</text>
        </g>
        <!-- trac -->
        <g id="node18" class="node">
            <title>trac</title>
            <ellipse fill="none" stroke="lightgrey" cx="89.24" cy="-384.62" rx="35.18" ry="18"/>
            <text xml:space="preserve" text-anchor="middle" x="89.24" y="-380.42" font-family="Times,serif" font-size="14.00" fill="lightgray">0x019</text>
        </g>
        <!-- tra&#45;&gt;trac -->
        <g id="edge10" class="edge">
            <title>tra-&gt;trac</title>
            <path fill="none" stroke="lightgrey" d="M111.52,-467.01C107.04,-450.68 101.44,-430.18 96.97,-413.85"/>
            <polygon fill="lightgrey" stroke="lightgrey" points="100.36,-412.99 94.34,-404.27 93.61,-414.83 100.36,-412.99"/>
            <text xml:space="preserve" text-anchor="middle" x="110.89" y="-436.23" font-family="Times,serif" font-size="14.00" fill="lightgray"> c</text>
        </g>
        <!-- tra&#45;&gt;trac -->
        <g id="edge22" class="edge">
            <title>tra-&gt;trac</title>
            <path fill="none" stroke="lightblue" d="M99.13,-470.58C94.78,-463.91 90.81,-456.42 88.53,-448.83 85.17,-437.68 84.72,-424.91 85.34,-413.78"/>
            <polygon fill="lightblue" stroke="lightblue" points="86.2,-404.12 89.8,-414.48 85.86,-407.89 85.32,-414.08 85.32,-414.08 85.32,-414.08 85.86,-407.89 80.83,-413.69 86.2,-404.12"/>
            <text xml:space="preserve" text-anchor="middle" x="93.38" y="-436.23" font-family="Times,serif" font-size="14.00" fill="blue"> c</text>
        </g>
        <!-- tra2 -->
        <g id="node19" class="node">
            <title>tra2</title>
            <ellipse fill="none" stroke="blue" cx="232.24" cy="-496.25" rx="37.72" ry="29.42"/>
            <text xml:space="preserve" text-anchor="middle" x="232.24" y="-500.45" font-family="Times,serif" font-size="14.00" fill="blue">Chain</text>
            <text xml:space="preserve" text-anchor="middle" x="232.24" y="-483.65" font-family="Times,serif" font-size="14.00" fill="blue">0x0B7</text>
        </g>
        <!-- tra&#45;&gt;tra2 -->
        <!-- trave -->
        <g id="node5" class="node">
            <title>trave</title>
            <ellipse fill="none" stroke="black" cx="202.24" cy="-284.4" rx="36.79" ry="18"/>
            <text xml:space="preserve" text-anchor="middle" x="202.24" y="-280.2" font-family="Times,serif" font-size="14.00">0x0B9</text>
        </g>
        <!-- trav&#45;&gt;trave -->
        <g id="edge3" class="edge">
            <title>trav-&gt;trave</title>
            <path fill="none" stroke="black" d="M198.7,-354.94C199.35,-342.16 200.12,-327.12 200.77,-314.31"/>
            <polygon fill="black" stroke="black" points="204.26,-314.53 201.28,-304.36 197.27,-314.17 204.26,-314.53"/>
            <text xml:space="preserve" text-anchor="middle" x="205.19" y="-324.6" font-family="Times,serif" font-size="14.00"> e</text>
        </g>
        <!-- tree -->
        <g id="node9" class="node">
            <title>tree</title>
            <ellipse fill="none" stroke="black" cx="343.24" cy="-384.62" rx="73.24" ry="18"/>
            <text xml:space="preserve" text-anchor="middle" x="343.24" y="-380.42" font-family="Times,serif" font-size="14.00">contentArray[1]</text>
        </g>
        <!-- trav&#45;&gt;tree -->
        <!-- traver -->
        <g id="node6" class="node">
            <title>traver</title>
            <ellipse fill="none" stroke="black" cx="203.24" cy="-195.6" rx="38.94" ry="18"/>
            <text xml:space="preserve" text-anchor="middle" x="203.24" y="-191.4" font-family="Times,serif" font-size="14.00">0x0BA</text>
        </g>
        <!-- trave&#45;&gt;traver -->
        <g id="edge4" class="edge">
            <title>trave-&gt;traver</title>
            <path fill="none" stroke="black" d="M202.44,-266.25C202.57,-254.56 202.75,-238.79 202.91,-225.22"/>
            <polygon fill="black" stroke="black" points="206.41,-225.56 203.02,-215.52 199.41,-225.48 206.41,-225.56"/>
            <text xml:space="preserve" text-anchor="middle" x="206.91" y="-235.8" font-family="Times,serif" font-size="14.00"> r</text>
        </g>
        <!-- travers -->
        <g id="node7" class="node">
            <title>travers</title>
            <ellipse fill="none" stroke="black" cx="203.24" cy="-106.8" rx="38.4" ry="18"/>
            <text xml:space="preserve" text-anchor="middle" x="203.24" y="-102.6" font-family="Times,serif" font-size="14.00">0x0BB</text>
        </g>
        <!-- traver&#45;&gt;travers -->
        <g id="edge5" class="edge">
            <title>traver-&gt;travers</title>
            <path fill="none" stroke="black" d="M203.24,-177.45C203.24,-165.76 203.24,-149.99 203.24,-136.42"/>
            <polygon fill="black" stroke="black" points="206.74,-136.72 203.24,-126.72 199.74,-136.72 206.74,-136.72"/>
            <text xml:space="preserve" text-anchor="middle" x="207.71" y="-147" font-family="Times,serif" font-size="14.00"> s</text>
        </g>
        <!-- traverse -->
        <g id="node8" class="node">
            <title>traverse</title>
            <ellipse fill="none" stroke="black" cx="203.24" cy="-18" rx="73.24" ry="18"/>
            <text xml:space="preserve" text-anchor="middle" x="203.24" y="-13.8" font-family="Times,serif" font-size="14.00">contentArray[3]</text>
        </g>
        <!-- travers&#45;&gt;traverse -->
        <g id="edge6" class="edge">
            <title>travers-&gt;traverse</title>
            <path fill="none" stroke="black" d="M203.24,-88.65C203.24,-76.96 203.24,-61.19 203.24,-47.62"/>
            <polygon fill="black" stroke="black" points="206.74,-47.92 203.24,-37.92 199.74,-47.92 206.74,-47.92"/>
            <text xml:space="preserve" text-anchor="middle" x="208.1" y="-58.2" font-family="Times,serif" font-size="14.00"> e</text>
        </g>
        <!-- trie -->
        <g id="node11" class="node">
            <title>trie</title>
            <ellipse fill="none" stroke="black" cx="525.24" cy="-384.62" rx="73.24" ry="18"/>
            <text xml:space="preserve" text-anchor="middle" x="525.24" y="-380.42" font-family="Times,serif" font-size="14.00">contentArray[2]</text>
        </g>
        <!-- tree&#45;&gt;trie -->
        <!-- tre -->
        <g id="node10" class="node">
            <title>tre</title>
            <ellipse fill="none" stroke="black" cx="343.24" cy="-496.25" rx="37.72" ry="29.42"/>
            <text xml:space="preserve" text-anchor="middle" x="343.24" y="-500.45" font-family="Times,serif" font-size="14.00">Chain</text>
            <text xml:space="preserve" text-anchor="middle" x="343.24" y="-483.65" font-family="Times,serif" font-size="14.00">0x03B</text>
        </g>
        <!-- tre&#45;&gt;tree -->
        <g id="edge15" class="edge">
            <title>tre-&gt;tree</title>
            <path fill="none" stroke="black" d="M343.24,-466.44C343.24,-450.37 343.24,-430.4 343.24,-414.34"/>
            <polygon fill="black" stroke="black" points="346.74,-414.46 343.24,-404.46 339.74,-414.46 346.74,-414.46"/>
            <text xml:space="preserve" text-anchor="middle" x="348.1" y="-436.23" font-family="Times,serif" font-size="14.00"> e</text>
        </g>
        <!-- tri -->
        <g id="node12" class="node">
            <title>tri</title>
            <ellipse fill="none" stroke="black" cx="454.24" cy="-496.25" rx="37.72" ry="29.42"/>
            <text xml:space="preserve" text-anchor="middle" x="454.24" y="-500.45" font-family="Times,serif" font-size="14.00">Chain</text>
            <text xml:space="preserve" text-anchor="middle" x="454.24" y="-483.65" font-family="Times,serif" font-size="14.00">0x05B</text>
        </g>
        <!-- tre&#45;&gt;tri -->
        <!-- tri&#45;&gt;trie -->
        <g id="edge17" class="edge">
            <title>tri-&gt;trie</title>
            <path fill="none" stroke="black" d="M470.89,-469.54C482.06,-452.3 496.73,-429.63 508.02,-412.2"/>
            <polygon fill="black" stroke="black" points="510.9,-414.19 513.4,-403.9 505.03,-410.39 510.9,-414.19"/>
            <text xml:space="preserve" text-anchor="middle" x="498.85" y="-436.23" font-family="Times,serif" font-size="14.00"> e</text>
        </g>
        <!-- tr -->
        <g id="node13" class="node">
            <title>tr</title>
            <ellipse fill="none" stroke="black" cx="228.24" cy="-607.88" rx="37.71" ry="29.42"/>
            <text xml:space="preserve" text-anchor="middle" x="228.24" y="-612.08" font-family="Times,serif" font-size="14.00">Sparse</text>
            <text xml:space="preserve" text-anchor="middle" x="228.24" y="-595.28" font-family="Times,serif" font-size="14.00">0x07E</text>
        </g>
        <!-- tr&#45;&gt;tra -->
        <g id="edge9" class="edge">
            <title>tr-&gt;tra</title>
            <path fill="none" stroke="lightgrey" d="M194.46,-594.54C177.57,-586.93 157.93,-575.67 144.53,-560.46 138.43,-553.54 133.7,-544.97 130.07,-536.39"/>
            <polygon fill="lightgrey" stroke="lightgrey" points="133.36,-535.19 126.57,-527.06 126.8,-537.65 133.36,-535.19"/>
            <text xml:space="preserve" text-anchor="middle" x="149.38" y="-547.86" font-family="Times,serif" font-size="14.00" fill="lightgray"> a</text>
        </g>
        <!-- tr&#45;&gt;tra -->
        <g id="edge21" class="edge">
            <title>tr-&gt;tra</title>
            <path fill="none" stroke="lightblue" d="M205.66,-584.16C189.54,-567.95 167.68,-545.97 149.98,-528.16"/>
            <polygon fill="lightblue" stroke="lightblue" points="143.03,-521.17 153.27,-525.09 145.7,-523.86 150.08,-528.27 150.08,-528.27 150.08,-528.27 145.7,-523.86 146.89,-531.44 143.03,-521.17"/>
            <text xml:space="preserve" text-anchor="middle" x="185.12" y="-547.86" font-family="Times,serif" font-size="14.00" fill="blue"> a</text>
        </g>
        <!-- tr&#45;&gt;tre -->
        <g id="edge14" class="edge">
            <title>tr-&gt;tre</title>
            <path fill="none" stroke="black" d="M251.79,-584.43C269,-568.02 292.53,-545.59 311.41,-527.59"/>
            <polygon fill="black" stroke="black" points="313.8,-530.14 318.63,-520.71 308.97,-525.08 313.8,-530.14"/>
            <text xml:space="preserve" text-anchor="middle" x="297.48" y="-547.86" font-family="Times,serif" font-size="14.00"> e</text>
        </g>
        <!-- tr&#45;&gt;tri -->
        <g id="edge16" class="edge">
            <title>tr-&gt;tri</title>
            <path fill="none" stroke="black" d="M259.67,-591.63C299.41,-572.35 368,-539.08 412.22,-517.63"/>
            <polygon fill="black" stroke="black" points="413.52,-520.89 420.99,-513.38 410.47,-514.59 413.52,-520.89"/>
            <text xml:space="preserve" text-anchor="middle" x="358.47" y="-547.86" font-family="Times,serif" font-size="14.00"> i</text>
        </g>
        <!-- tr&#45;&gt;t -->
        <g id="edge39" class="edge">
            <title>tr-&gt;t</title>
            <path fill="none" stroke="pink" d="M235.52,-637.17C237.47,-648.08 238.69,-660.66 237.24,-672.09 236.95,-674.38 236.56,-676.73 236.1,-679.08"/>
            <polygon fill="pink" stroke="pink" points="233.88,-688.63 231.76,-677.87 234.74,-684.94 236.15,-678.89 236.15,-678.89 236.15,-678.89 234.74,-684.94 240.53,-679.91 233.88,-688.63"/>
            <text xml:space="preserve" text-anchor="middle" x="256.15" y="-659.49" font-family="Times,serif" font-size="14.00" fill="red">0x07E</text>
        </g>
        <!-- tr&#45;&gt;tra2 -->
        <g id="edge32" class="edge">
            <title>tr-&gt;tra2</title>
            <path fill="none" stroke="blue" d="M216.76,-579.59C213.42,-568.48 211.23,-555.5 213.53,-543.66 214.08,-540.83 214.8,-537.94 215.64,-535.08"/>
            <polygon fill="blue" stroke="blue" points="218.95,-536.23 218.87,-525.64 212.32,-533.97 218.95,-536.23"/>
            <text xml:space="preserve" text-anchor="middle" x="218.38" y="-547.86" font-family="Times,serif" font-size="14.00"> a</text>
        </g>
        <!-- t&#45;&gt;root -->
        <g id="edge40" class="edge">
            <title>t-&gt;root</title>
            <path fill="none" stroke="pink" d="M233.01,-726.41C234.33,-732.01 235.58,-738.27 236.24,-744.09 237.12,-751.86 236.9,-760.16 236.13,-768.11"/>
            <polygon fill="pink" stroke="pink" points="234.87,-777.8 231.69,-767.3 235.36,-774.05 236.16,-767.88 236.16,-767.88 236.16,-767.88 235.36,-774.05 240.62,-768.46 234.87,-777.8"/>
            <text xml:space="preserve" text-anchor="middle" x="255.48" y="-748.29" font-family="Times,serif" font-size="14.00" fill="red">0x09B</text>
        </g>
        <!-- t&#45;&gt;tr -->
        <g id="edge8" class="edge">
            <title>t-&gt;tr</title>
            <path fill="none" stroke="black" d="M211.64,-691.88C206.61,-686.22 201.72,-679.38 199.08,-672.09 196.54,-665.07 197.01,-662.47 199.08,-655.29 200.23,-651.31 201.83,-647.34 203.7,-643.49"/>
            <polygon fill="black" stroke="black" points="206.62,-645.43 208.4,-634.99 200.49,-642.04 206.62,-645.43"/>
            <text xml:space="preserve" text-anchor="middle" x="203.16" y="-659.49" font-family="Times,serif" font-size="14.00"> r</text>
        </g>
        <!-- t&#45;&gt;tr -->
        <g id="edge20" class="edge">
            <title>t-&gt;tr</title>
            <path fill="none" stroke="lightblue" d="M228.24,-689.99C228.24,-678.62 228.24,-663.21 228.24,-648.88"/>
            <polygon fill="lightblue" stroke="lightblue" points="228.24,-638.93 232.74,-648.93 228.24,-642.71 228.24,-648.93 228.24,-648.93 228.24,-648.93 228.24,-642.71 223.74,-648.93 228.24,-638.93"/>
            <text xml:space="preserve" text-anchor="middle" x="232.32" y="-659.49" font-family="Times,serif" font-size="14.00" fill="blue"> r</text>
        </g>
        <!-- tractor -->
        <g id="node15" class="node">
            <title>tractor</title>
            <ellipse fill="none" stroke="lightgrey" cx="73.24" cy="-106.8" rx="73.24" ry="18"/>
            <text xml:space="preserve" text-anchor="middle" x="73.24" y="-102.6" font-family="Times,serif" font-size="14.00" fill="lightgray">contentArray[0]</text>
        </g>
        <!-- tracto -->
        <g id="node16" class="node">
            <title>tracto</title>
            <ellipse fill="none" stroke="lightgrey" cx="75.24" cy="-195.6" rx="36.79" ry="18"/>
            <text xml:space="preserve" text-anchor="middle" x="75.24" y="-191.4" font-family="Times,serif" font-size="14.00" fill="lightgray">0x01B</text>
        </g>
        <!-- tractor&#45;&gt;tracto -->
        <g id="edge34" class="edge">
            <title>tractor-&gt;tracto</title>
            <path fill="none" stroke="pink" d="M45.07,-123.68C32.13,-133.19 21.02,-146.04 27.86,-159.6 31,-165.83 35.84,-171.23 41.24,-175.79"/>
            <polygon fill="pink" stroke="pink" points="49.05,-181.56 38.33,-179.24 46.01,-179.31 41,-175.62 41,-175.62 41,-175.62 46.01,-179.31 43.68,-172 49.05,-181.56"/>
            <text xml:space="preserve" text-anchor="middle" x="49.05" y="-147" font-family="Times,serif" font-size="14.00" fill="red"> NONE</text>
        </g>
        <!-- tracto&#45;&gt;tractor -->
        <g id="edge13" class="edge">
            <title>tracto-&gt;tractor</title>
            <path fill="none" stroke="lightgrey" d="M74.85,-177.45C74.58,-165.76 74.21,-149.99 73.9,-136.42"/>
            <polygon fill="lightgrey" stroke="lightgrey" points="77.41,-136.64 73.68,-126.72 70.41,-136.8 77.41,-136.64"/>
            <text xml:space="preserve" text-anchor="middle" x="78.5" y="-147" font-family="Times,serif" font-size="14.00" fill="lightgray"> r</text>
        </g>
        <!-- tracto&#45;&gt;tractor -->
        <g id="edge25" class="edge">
            <title>tracto-&gt;tractor</title>
            <path fill="none" stroke="lightblue" d="M80.45,-177.35C82.86,-167.28 84.86,-154.33 83.24,-142.8 82.92,-140.5 82.48,-138.14 81.97,-135.79"/>
            <polygon fill="lightblue" stroke="lightblue" points="79.5,-126.22 86.36,-134.78 80.45,-129.88 82,-135.9 82,-135.9 82,-135.9 80.45,-129.88 77.65,-137.03 79.5,-126.22"/>
            <text xml:space="preserve" text-anchor="middle" x="87.9" y="-147" font-family="Times,serif" font-size="14.00" fill="blue"> r</text>
        </g>
        <!-- tract -->
        <g id="node17" class="node">
            <title>tract</title>
            <ellipse fill="none" stroke="lightgrey" cx="78.24" cy="-284.4" rx="37.32" ry="18"/>
            <text xml:space="preserve" text-anchor="middle" x="78.24" y="-280.2" font-family="Times,serif" font-size="14.00" fill="lightgray">0x01A</text>
        </g>
        <!-- tracto&#45;&gt;tract -->
        <g id="edge35" class="edge">
            <title>tracto-&gt;tract</title>
            <path fill="none" stroke="pink" d="M51.35,-209.48C36.74,-219.2 22.19,-233.39 29.86,-248.4 33.05,-254.64 37.92,-260.03 43.38,-264.57"/>
            <polygon fill="pink" stroke="pink" points="51.27,-270.31 40.54,-268.07 48.21,-268.09 43.18,-264.43 43.18,-264.43 43.18,-264.43 48.21,-268.09 45.83,-260.79 51.27,-270.31"/>
            <text xml:space="preserve" text-anchor="middle" x="51.05" y="-235.8" font-family="Times,serif" font-size="14.00" fill="red"> NONE</text>
        </g>
        <!-- tract&#45;&gt;tracto -->
        <g id="edge12" class="edge">
            <title>tract-&gt;tracto</title>
            <path fill="none" stroke="lightgrey" d="M77.45,-265.96C77.2,-260.35 76.95,-254.11 76.74,-248.4 76.47,-240.94 76.22,-232.87 76,-225.37"/>
            <polygon fill="lightgrey" stroke="lightgrey" points="79.5,-225.28 75.72,-215.38 72.5,-225.48 79.5,-225.28"/>
            <text xml:space="preserve" text-anchor="middle" x="81.99" y="-235.8" font-family="Times,serif" font-size="14.00" fill="lightgray"> o</text>
        </g>
        <!-- tract&#45;&gt;tracto -->
        <g id="edge24" class="edge">
            <title>tract-&gt;tracto</title>
            <path fill="none" stroke="lightblue" d="M84.18,-266.14C86.91,-256.07 89.16,-243.12 87.24,-231.6 86.84,-229.18 86.29,-226.7 85.64,-224.24"/>
            <polygon fill="lightblue" stroke="lightblue" points="82.74,-214.92 90.01,-223.13 83.87,-218.53 85.71,-224.47 85.71,-224.47 85.71,-224.47 83.87,-218.53 81.42,-225.8 82.74,-214.92"/>
            <text xml:space="preserve" text-anchor="middle" x="93.2" y="-235.8" font-family="Times,serif" font-size="14.00" fill="blue"> o</text>
        </g>
        <!-- tract&#45;&gt;trac -->
        <g id="edge36" class="edge">
            <title>tract-&gt;trac</title>
            <path fill="none" stroke="pink" d="M53.59,-298.27C45.45,-303.89 37.34,-311.29 32.86,-320.4 29.56,-327.1 29.67,-330.45 32.86,-337.2 38.03,-348.15 47.18,-357.39 56.63,-364.67"/>
            <polygon fill="pink" stroke="pink" points="64.67,-370.34 53.9,-368.25 61.58,-368.16 56.5,-364.57 56.5,-364.57 56.5,-364.57 61.58,-368.16 59.09,-360.9 64.67,-370.34"/>
            <text xml:space="preserve" text-anchor="middle" x="54.05" y="-324.6" font-family="Times,serif" font-size="14.00" fill="red"> NONE</text>
        </g>
        <!-- trac&#45;&gt;trav -->
        <!-- trac&#45;&gt;tract -->
        <g id="edge11" class="edge">
            <title>trac-&gt;tract</title>
            <path fill="none" stroke="lightgrey" d="M85.6,-366.5C83.89,-357.77 81.97,-346.96 80.85,-337.2 79.99,-329.69 79.41,-321.53 79.02,-313.95"/>
            <polygon fill="lightgrey" stroke="lightgrey" points="82.53,-314.07 78.62,-304.22 75.54,-314.36 82.53,-314.07"/>
            <text xml:space="preserve" text-anchor="middle" x="84.55" y="-324.6" font-family="Times,serif" font-size="14.00" fill="lightgray"> t</text>
        </g>
        <!-- trac&#45;&gt;tract -->
        <g id="edge23" class="edge">
            <title>trac-&gt;tract</title>
            <path fill="none" stroke="lightblue" d="M89.24,-366.37C89.05,-353.62 88.36,-335.86 86.24,-320.4 85.93,-318.13 85.54,-315.8 85.11,-313.46"/>
            <polygon fill="lightblue" stroke="lightblue" points="83.09,-303.93 89.57,-312.78 83.88,-307.63 85.16,-313.71 85.16,-313.71 85.16,-313.71 83.88,-307.63 80.76,-314.64 83.09,-303.93"/>
            <text xml:space="preserve" text-anchor="middle" x="91.58" y="-324.6" font-family="Times,serif" font-size="14.00" fill="blue"> t</text>
        </g>
        <!-- trac&#45;&gt;tra2 -->
        <g id="edge37" class="edge">
            <title>trac-&gt;tra2</title>
            <path fill="none" stroke="pink" d="M110.22,-399.42C123.43,-408.34 140.68,-420.41 155.24,-432.03 163.95,-438.98 165.35,-441.63 173.86,-448.83 181.32,-455.16 189.47,-461.79 197.24,-468"/>
            <polygon fill="pink" stroke="pink" points="204.85,-474.04 194.22,-471.35 201.89,-471.69 197.01,-467.82 197.01,-467.82 197.01,-467.82 201.89,-471.69 199.81,-464.3 204.85,-474.04"/>
            <text xml:space="preserve" text-anchor="middle" x="195.05" y="-436.23" font-family="Times,serif" font-size="14.00" fill="red"> NONE</text>
        </g>
        <!-- tra2&#45;&gt;trav -->
        <g id="edge33" class="edge">
            <title>tra2-&gt;trav</title>
            <path fill="none" stroke="blue" d="M228.48,-466.5C226.61,-455.54 223.94,-443.05 220.24,-432.03 219.16,-428.81 217.9,-425.53 216.53,-422.28"/>
            <polygon fill="blue" stroke="blue" points="219.85,-421.12 212.53,-413.46 213.48,-424.01 219.85,-421.12"/>
            <text xml:space="preserve" text-anchor="middle" x="229.82" y="-436.23" font-family="Times,serif" font-size="14.00"> v</text>
        </g>
        <!-- tra2&#45;&gt;tre -->
        <!-- tra2&#45;&gt;tr -->
        <g id="edge38" class="edge">
            <title>tra2-&gt;tr</title>
            <path fill="none" stroke="pink" d="M231.2,-525.86C230.74,-538.42 230.19,-553.39 229.7,-567.02"/>
            <polygon fill="pink" stroke="pink" points="229.34,-576.86 225.2,-566.7 229.47,-573.08 229.7,-566.86 229.7,-566.86 229.7,-566.86 229.47,-573.08 234.2,-567.03 229.34,-576.86"/>
            <text xml:space="preserve" text-anchor="middle" x="249.15" y="-547.86" font-family="Times,serif" font-size="14.00" fill="red">0x0B7</text>
        </g>
    </g>
</svg>