<?xml version="1.0" encoding="UTF-8" standalone="no"?>
<!DOCTYPE svg PUBLIC "-//W3C//DTD SVG 1.1//EN"
        "http://www.w3.org/Graphics/SVG/1.1/DTD/svg11.dtd">
<!---
 Licensed to the Apache Software Foundation (ASF) under one
 or more contributor license agreements.  See the NOTICE file
 distributed with this work for additional information
 regarding copyright ownership.  The ASF licenses this file
 to you under the Apache License, Version 2.0 (the
 "License"); you may not use this file except in compliance
 with the License.  You may obtain a copy of the License at

     http://www.apache.org/licenses/LICENSE-2.0

 Unless required by applicable law or agreed to in writing, software
 distributed under the License is distributed on an "AS IS" BASIS,
 WITHOUT WARRANTIES OR CONDITIONS OF ANY KIND, either express or implied.
 See the License for the specific language governing permissions and
 limitations under the License.
-->

<!-- Generated by graphviz version 2.40.1 (20161225.0304)
digraph G {
    { rank=same root -> start [style=invis] }
    newrank = true
    start [label="start/end"]

    tractor [label = "contentArray[0]"]
    tracto [label = "0x01B"]
    tract [label = "0x01A"]
    trac [label = "0x019"]
    tra [label = "Chain\n0x018"]

    tree [label = "contentArray[1]"; color = "lightgrey"; fontcolor = lightgray]
    tre [label = "Chain\n0x03B"]
    trie [label = "contentArray[2]"]
    tri [label = "Chain\n0x05B"]

    tr [label = "Sparse\n0x07E"]

    t [label = "0x09B"]
    root [label = "Chain\n0x9A"]

    root -> t [label = " t"]
    t -> tr [label = " r"]
    tr -> tra [label = " a"]
    tra -> trac [label = " c"]
    trac -> tract [label = " t"]
    tract -> tracto [label = " o"]
    tracto -> tractor [label = " r"]

    tr -> tre [label = " e"]
    tre -> tree [label = " e"; color = "lightgrey"; fontcolor = lightgray]

    tr -> tri [label = " i"]
    tri -> trie [label = " e"]

    subgraph newNodes {
        edge [color = "blue"; fontcolor="blue"; arrowhead="vee"]
        node [color = "blue"; fontcolor="blue"]
        ranksep = 0.1
        tree2 [label = "Chain\n0x0BB"]
        tree2p [label = "Prefix\n0x0BF\ncontentArray[1]"]
        tre -> tree2p [label = " e"]
        tree2p -> tree2 [label = " &epsilon;"]
        tree2 -> trees [label = " s"]
    }


    {rank=same tra -> tre -> tri [style=invis]}
    {rank=same trac -> tree -> tree2p -> trie [style=invis]}

    subgraph path {
        edge [color = "lightblue"; fontcolor="blue"; arrowhead="vee"]
        node [color = "lightblue"; fontcolor="blue"]

        start -> root

        root -> t [label = " t"]
        t -> tr [label = " r"]
        tr -> tre [label = " e"]
        tre -> tree [label = " e"]
        tree -> trees [label = " s"]

        trees [label = "contentArray[3]"; constraint = false]
    }


    subgraph back {
        edge [color = "pink"; fontcolor="red"; arrowhead="vee"; constraint="false"]

        trees -> tree2 [label = " ~3"]
        tree2 -> tree2p [label = "0x0BB"]
        tree2p -> tre [label = "0x0BF"]
        tre -> tr [label = "0x03B"]
        tr -> t [label = "0x07E"]
        t -> root [label = "0x09B"]
        root -> start [label = "0x09A"]
    }
}
 -->
<!-- Title: G Pages: 1 -->
<svg xmlns="http://www.w3.org/2000/svg" xmlns:xlink="http://www.w3.org/1999/xlink" width="666pt" height="678pt" viewBox="0.00 0.00 666.00 678.00">
    <g id="graph0" class="graph" transform="scale(1 1) rotate(0) translate(4 673.52)">
        <title>G</title>
        <polygon fill="white" stroke="none" points="-4,4 -4,-673.52 662.48,-673.52 662.48,4 -4,4"/>
        <!-- root -->
        <g id="node1" class="node">
            <title>root</title>
            <ellipse fill="none" stroke="black" cx="222.24" cy="-640.1" rx="34.96" ry="29.42"/>
            <text xml:space="preserve" text-anchor="middle" x="222.24" y="-644.3" font-family="Times,serif" font-size="14.00">Chain</text>
            <text xml:space="preserve" text-anchor="middle" x="222.24" y="-627.5" font-family="Times,serif" font-size="14.00">0x9A</text>
        </g>
        <!-- start -->
        <g id="node2" class="node">
            <title>start</title>
            <ellipse fill="none" stroke="black" cx="357.24" cy="-640.1" rx="44.29" ry="18"/>
            <text xml:space="preserve" text-anchor="middle" x="357.24" y="-635.9" font-family="Times,serif" font-size="14.00">start/end</text>
        </g>
        <!-- root&#45;&gt;start -->
        <!-- root&#45;&gt;start -->
        <g id="edge33" class="edge">
            <title>root-&gt;start</title>
            <path fill="none" stroke="pink" d="M257.36,-640.1C270.81,-640.1 286.5,-640.1 301.41,-640.1"/>
            <polygon fill="pink" stroke="pink" points="311.39,-640.1 301.39,-644.6 307.61,-640.1 301.39,-640.1 301.39,-640.1 301.39,-640.1 307.61,-640.1 301.39,-635.6 311.39,-640.1"/>
            <text xml:space="preserve" text-anchor="middle" x="285.08" y="-647.3" font-family="Times,serif" font-size="14.00" fill="red">0x09A</text>
        </g>
        <!-- t -->
        <g id="node13" class="node">
            <title>t</title>
            <ellipse fill="none" stroke="black" cx="222.24" cy="-557.88" rx="36.79" ry="18"/>
            <text xml:space="preserve" text-anchor="middle" x="222.24" y="-553.68" font-family="Times,serif" font-size="14.00">0x09B</text>
        </g>
        <!-- root&#45;&gt;t -->
        <g id="edge2" class="edge">
            <title>root-&gt;t</title>
            <path fill="none" stroke="black" d="M222.24,-610.59C222.24,-603.12 222.24,-595.05 222.24,-587.57"/>
            <polygon fill="black" stroke="black" points="225.74,-587.61 222.24,-577.61 218.74,-587.61 225.74,-587.61"/>
            <text xml:space="preserve" text-anchor="middle" x="225.94" y="-589.08" font-family="Times,serif" font-size="14.00"> t</text>
        </g>
        <!-- root&#45;&gt;t -->
        <g id="edge22" class="edge">
            <title>root-&gt;t</title>
            <path fill="none" stroke="lightblue" d="M211.97,-611.52C210.43,-604.85 209.51,-597.63 211.41,-586.24"/>
            <polygon fill="lightblue" stroke="lightblue" points="213.46,-576.8 215.73,-587.53 212.66,-580.5 211.34,-586.57 211.34,-586.57 211.34,-586.57 212.66,-580.5 206.94,-585.62 213.46,-576.8"/>
            <text xml:space="preserve" text-anchor="middle" x="214.55" y="-589.08" font-family="Times,serif" font-size="14.00" fill="blue"> t</text>
        </g>
        <!-- start&#45;&gt;root -->
        <g id="edge21" class="edge">
            <title>start-&gt;root</title>
            <path fill="none" stroke="lightblue" d="M313.28,-637.44C301.13,-636.99 287.95,-636.76 275.78,-637.1 273.37,-637.17 270.88,-637.25 268.38,-637.35"/>
            <polygon fill="lightblue" stroke="lightblue" points="258.58,-637.79 268.37,-632.85 262.36,-637.62 268.57,-637.34 268.57,-637.34 268.57,-637.34 262.36,-637.62 268.78,-641.84 258.58,-637.79"/>
        </g>
        <!-- tractor -->
        <g id="node3" class="node">
            <title>tractor</title>
            <ellipse fill="none" stroke="black" cx="73.24" cy="-18" rx="73.24" ry="18"/>
            <text xml:space="preserve" text-anchor="middle" x="73.24" y="-13.8" font-family="Times,serif" font-size="14.00">contentArray[0]</text>
        </g>
        <!-- tracto -->
        <g id="node4" class="node">
            <title>tracto</title>
            <ellipse fill="none" stroke="black" cx="73.24" cy="-88.8" rx="36.79" ry="18"/>
            <text xml:space="preserve" text-anchor="middle" x="73.24" y="-84.6" font-family="Times,serif" font-size="14.00">0x01B</text>
        </g>
        <!-- tracto&#45;&gt;tractor -->
        <g id="edge8" class="edge">
            <title>tracto-&gt;tractor</title>
            <path fill="none" stroke="black" d="M73.24,-70.44C73.24,-63.46 73.24,-55.23 73.24,-47.42"/>
            <polygon fill="black" stroke="black" points="76.74,-47.63 73.24,-37.63 69.74,-47.63 76.74,-47.63"/>
            <text xml:space="preserve" text-anchor="middle" x="77.32" y="-49.2" font-family="Times,serif" font-size="14.00"> r</text>
        </g>
        <!-- tract -->
        <g id="node5" class="node">
            <title>tract</title>
            <ellipse fill="none" stroke="black" cx="73.24" cy="-171.02" rx="37.32" ry="18"/>
            <text xml:space="preserve" text-anchor="middle" x="73.24" y="-166.82" font-family="Times,serif" font-size="14.00">0x01A</text>
        </g>
        <!-- tract&#45;&gt;tracto -->
        <g id="edge7" class="edge">
            <title>tract-&gt;tracto</title>
            <path fill="none" stroke="black" d="M73.24,-152.61C73.24,-142.62 73.24,-129.84 73.24,-118.41"/>
            <polygon fill="black" stroke="black" points="76.74,-118.69 73.24,-108.69 69.74,-118.69 76.74,-118.69"/>
            <text xml:space="preserve" text-anchor="middle" x="78.49" y="-120" font-family="Times,serif" font-size="14.00"> o</text>
        </g>
        <!-- trac -->
        <g id="node6" class="node">
            <title>trac</title>
            <ellipse fill="none" stroke="black" cx="73.24" cy="-276.53" rx="35.18" ry="18"/>
            <text xml:space="preserve" text-anchor="middle" x="73.24" y="-272.33" font-family="Times,serif" font-size="14.00">0x019</text>
        </g>
        <!-- trac&#45;&gt;tract -->
        <g id="edge6" class="edge">
            <title>trac-&gt;tract</title>
            <path fill="none" stroke="black" d="M73.24,-258.43C73.24,-242.8 73.24,-219.34 73.24,-200.81"/>
            <polygon fill="black" stroke="black" points="76.74,-200.99 73.24,-190.99 69.74,-200.99 76.74,-200.99"/>
            <text xml:space="preserve" text-anchor="middle" x="76.94" y="-213.63" font-family="Times,serif" font-size="14.00"> t</text>
        </g>
        <!-- tree -->
        <g id="node8" class="node">
            <title>tree</title>
            <ellipse fill="none" stroke="lightgrey" cx="217.24" cy="-276.53" rx="73.24" ry="18"/>
            <text xml:space="preserve" text-anchor="middle" x="217.24" y="-272.33" font-family="Times,serif" font-size="14.00" fill="lightgray">contentArray[1]</text>
        </g>
        <!-- trac&#45;&gt;tree -->
        <!-- tra -->
        <g id="node7" class="node">
            <title>tra</title>
            <ellipse fill="none" stroke="black" cx="141.24" cy="-382.04" rx="36.06" ry="29.42"/>
            <text xml:space="preserve" text-anchor="middle" x="141.24" y="-386.24" font-family="Times,serif" font-size="14.00">Chain</text>
            <text xml:space="preserve" text-anchor="middle" x="141.24" y="-369.44" font-family="Times,serif" font-size="14.00">0x018</text>
        </g>
        <!-- tra&#45;&gt;trac -->
        <g id="edge5" class="edge">
            <title>tra-&gt;trac</title>
            <path fill="none" stroke="black" d="M124.61,-355.72C114.12,-339.76 100.63,-319.21 90.1,-303.19"/>
            <polygon fill="black" stroke="black" points="93.23,-301.58 84.81,-295.14 87.38,-305.42 93.23,-301.58"/>
            <text xml:space="preserve" text-anchor="middle" x="120.19" y="-331.02" font-family="Times,serif" font-size="14.00"> c</text>
        </g>
        <!-- tre -->
        <g id="node9" class="node">
            <title>tre</title>
            <ellipse fill="none" stroke="black" cx="250.24" cy="-382.04" rx="37.72" ry="29.42"/>
            <text xml:space="preserve" text-anchor="middle" x="250.24" y="-386.24" font-family="Times,serif" font-size="14.00">Chain</text>
            <text xml:space="preserve" text-anchor="middle" x="250.24" y="-369.44" font-family="Times,serif" font-size="14.00">0x03B</text>
        </g>
        <!-- tra&#45;&gt;tre -->
        <!-- tree2p -->
        <g id="node15" class="node">
            <title>tree2p</title>
            <ellipse fill="none" stroke="blue" cx="401.24" cy="-276.53" rx="75.08" ry="41.3"/>
            <text xml:space="preserve" text-anchor="middle" x="401.24" y="-289.13" font-family="Times,serif" font-size="14.00" fill="blue">Prefix</text>
            <text xml:space="preserve" text-anchor="middle" x="401.24" y="-272.33" font-family="Times,serif" font-size="14.00" fill="blue">0x0BF</text>
            <text xml:space="preserve" text-anchor="middle" x="401.24" y="-255.53" font-family="Times,serif" font-size="14.00" fill="blue">contentArray[1]</text>
        </g>
        <!-- tree&#45;&gt;tree2p -->
        <!-- trees -->
        <g id="node16" class="node">
            <title>trees</title>
            <ellipse fill="none" stroke="blue" cx="295.24" cy="-88.8" rx="73.24" ry="18"/>
            <text xml:space="preserve" text-anchor="middle" x="295.24" y="-84.6" font-family="Times,serif" font-size="14.00" fill="blue">contentArray[3]</text>
        </g>
        <!-- tree&#45;&gt;trees -->
        <g id="edge26" class="edge">
            <title>tree-&gt;trees</title>
            <path fill="none" stroke="lightblue" d="M224.44,-258.39C237.96,-226.2 267.25,-156.45 283.61,-117.51"/>
            <polygon fill="lightblue" stroke="lightblue" points="287.47,-108.29 287.75,-119.25 286.01,-111.78 283.6,-117.51 283.6,-117.51 283.6,-117.51 286.01,-111.78 279.45,-115.77 287.47,-108.29"/>
            <text xml:space="preserve" text-anchor="middle" x="277.14" y="-166.82" font-family="Times,serif" font-size="14.00" fill="blue"> s</text>
        </g>
        <!-- tre&#45;&gt;tree -->
        <g id="edge10" class="edge">
            <title>tre-&gt;tree</title>
            <path fill="none" stroke="lightgrey" d="M227.05,-358.49C223.58,-353.91 220.51,-348.88 218.53,-343.62 214.08,-331.87 213.21,-318.07 213.66,-306.14"/>
            <polygon fill="lightgrey" stroke="lightgrey" points="217.13,-306.7 214.36,-296.48 210.14,-306.2 217.13,-306.7"/>
            <text xml:space="preserve" text-anchor="middle" x="223.38" y="-331.02" font-family="Times,serif" font-size="14.00" fill="lightgray"> e</text>
        </g>
        <!-- tre&#45;&gt;tree -->
        <g id="edge25" class="edge">
            <title>tre-&gt;tree</title>
            <path fill="none" stroke="lightblue" d="M241.31,-353.03C236.6,-338.23 230.83,-320.14 226.12,-305.38"/>
            <polygon fill="lightblue" stroke="lightblue" points="223.13,-296 230.46,-304.16 224.28,-299.61 226.17,-305.53 226.17,-305.53 226.17,-305.53 224.28,-299.61 221.88,-306.9 223.13,-296"/>
            <text xml:space="preserve" text-anchor="middle" x="242.52" y="-331.02" font-family="Times,serif" font-size="14.00" fill="blue"> e</text>
        </g>
        <!-- tri -->
        <g id="node11" class="node">
            <title>tri</title>
            <ellipse fill="none" stroke="black" cx="361.24" cy="-382.04" rx="37.72" ry="29.42"/>
            <text xml:space="preserve" text-anchor="middle" x="361.24" y="-386.24" font-family="Times,serif" font-size="14.00">Chain</text>
            <text xml:space="preserve" text-anchor="middle" x="361.24" y="-369.44" font-family="Times,serif" font-size="14.00">0x05B</text>
        </g>
        <!-- tre&#45;&gt;tri -->
        <!-- tr -->
        <g id="node12" class="node">
            <title>tr</title>
            <ellipse fill="none" stroke="black" cx="222.24" cy="-475.67" rx="37.71" ry="29.42"/>
            <text xml:space="preserve" text-anchor="middle" x="222.24" y="-479.87" font-family="Times,serif" font-size="14.00">Sparse</text>
            <text xml:space="preserve" text-anchor="middle" x="222.24" y="-463.07" font-family="Times,serif" font-size="14.00">0x07E</text>
        </g>
        <!-- tre&#45;&gt;tr -->
        <g id="edge30" class="edge">
            <title>tre-&gt;tr</title>
            <path fill="none" stroke="pink" d="M239.37,-410.29C238.14,-413.69 236.95,-417.14 235.9,-420.45 234.34,-425.4 232.83,-430.64 231.43,-435.84"/>
            <polygon fill="pink" stroke="pink" points="229.01,-445.17 227.16,-434.36 229.96,-441.51 231.52,-435.49 231.52,-435.49 231.52,-435.49 229.96,-441.51 235.87,-436.62 229.01,-445.17"/>
            <text xml:space="preserve" text-anchor="middle" x="254.57" y="-424.65" font-family="Times,serif" font-size="14.00" fill="red">0x03B</text>
        </g>
        <!-- tre&#45;&gt;tree2p -->
        <g id="edge13" class="edge">
            <title>tre-&gt;tree2p</title>
            <path fill="none" stroke="blue" d="M282,-365.5C292.14,-360.93 303.52,-356.2 314.24,-352.62 331.11,-346.99 338.41,-353.44 353.24,-343.62 360.81,-338.61 367.59,-331.98 373.5,-324.85"/>
            <polygon fill="blue" stroke="blue" points="379.31,-317.28 376.79,-327.96 377.01,-320.28 373.22,-325.22 373.22,-325.22 373.22,-325.22 377.01,-320.28 369.65,-322.48 379.31,-317.28"/>
            <text xml:space="preserve" text-anchor="middle" x="376.2" y="-331.02" font-family="Times,serif" font-size="14.00" fill="blue"> e</text>
        </g>
        <!-- trie -->
        <g id="node10" class="node">
            <title>trie</title>
            <ellipse fill="none" stroke="black" cx="585.24" cy="-276.53" rx="73.24" ry="18"/>
            <text xml:space="preserve" text-anchor="middle" x="585.24" y="-272.33" font-family="Times,serif" font-size="14.00">contentArray[2]</text>
        </g>
        <!-- tri&#45;&gt;trie -->
        <g id="edge12" class="edge">
            <title>tri-&gt;trie</title>
            <path fill="none" stroke="black" d="M393.33,-366.21C432.23,-348.23 497.94,-317.87 541.46,-297.76"/>
            <polygon fill="black" stroke="black" points="542.76,-301.01 550.37,-293.64 539.82,-294.66 542.76,-301.01"/>
            <text xml:space="preserve" text-anchor="middle" x="478.1" y="-331.02" font-family="Times,serif" font-size="14.00"> e</text>
        </g>
        <!-- tr&#45;&gt;tra -->
        <g id="edge4" class="edge">
            <title>tr-&gt;tra</title>
            <path fill="none" stroke="black" d="M201.38,-451.07C191.65,-440.06 179.92,-426.8 169.42,-414.91"/>
            <polygon fill="black" stroke="black" points="172.28,-412.86 163.03,-407.69 167.03,-417.5 172.28,-412.86"/>
            <text xml:space="preserve" text-anchor="middle" x="193.85" y="-424.65" font-family="Times,serif" font-size="14.00"> a</text>
        </g>
        <!-- tr&#45;&gt;tre -->
        <g id="edge9" class="edge">
            <title>tr-&gt;tre</title>
            <path fill="none" stroke="black" d="M254.63,-460.02C263.59,-454.28 272.22,-446.75 277.24,-437.25 280.81,-430.51 280.19,-423.23 277.46,-416.27"/>
            <polygon fill="black" stroke="black" points="280.7,-414.91 272.92,-407.72 274.52,-418.19 280.7,-414.91"/>
            <text xml:space="preserve" text-anchor="middle" x="284.57" y="-424.65" font-family="Times,serif" font-size="14.00"> e</text>
        </g>
        <!-- tr&#45;&gt;tre -->
        <g id="edge24" class="edge">
            <title>tr-&gt;tre</title>
            <path fill="none" stroke="lightblue" d="M207.83,-448.15C204.81,-439.14 203.58,-429.16 207.53,-420.45 209.31,-416.52 211.73,-412.85 214.52,-409.45"/>
            <polygon fill="lightblue" stroke="lightblue" points="221.21,-402.47 217.53,-412.8 218.59,-405.2 214.29,-409.69 214.29,-409.69 214.29,-409.69 218.59,-405.2 211.04,-406.57 221.21,-402.47"/>
            <text xml:space="preserve" text-anchor="middle" x="212.38" y="-424.65" font-family="Times,serif" font-size="14.00" fill="blue"> e</text>
        </g>
        <!-- tr&#45;&gt;tri -->
        <g id="edge11" class="edge">
            <title>tr-&gt;tri</title>
            <path fill="none" stroke="black" d="M254.07,-459.51C266.58,-453.14 280.88,-445.33 293.24,-437.25 304.99,-429.57 317.17,-420.32 327.93,-411.65"/>
            <polygon fill="black" stroke="black" points="329.9,-414.56 335.41,-405.51 325.46,-409.15 329.9,-414.56"/>
            <text xml:space="preserve" text-anchor="middle" x="320.26" y="-424.65" font-family="Times,serif" font-size="14.00"> i</text>
        </g>
        <!-- tr&#45;&gt;t -->
        <g id="edge31" class="edge">
            <title>tr-&gt;t</title>
            <path fill="none" stroke="pink" d="M233.05,-504.25C234.67,-510.92 235.65,-518.14 233.65,-529.54"/>
            <polygon fill="pink" stroke="pink" points="231.49,-539 229.33,-528.25 232.33,-535.32 233.71,-529.25 233.71,-529.25 233.71,-529.25 232.33,-535.32 238.1,-530.26 231.49,-539"/>
            <text xml:space="preserve" text-anchor="middle" x="253.52" y="-518.28" font-family="Times,serif" font-size="14.00" fill="red">0x07E</text>
        </g>
        <!-- t&#45;&gt;root -->
        <g id="edge32" class="edge">
            <title>t-&gt;root</title>
            <path fill="none" stroke="pink" d="M230.47,-575.63C231.62,-578.65 232.62,-581.81 233.24,-584.88 234.28,-590.03 234.38,-595.44 233.89,-600.78"/>
            <polygon fill="pink" stroke="pink" points="232.36,-610.32 229.5,-599.73 232.96,-606.58 233.94,-600.44 233.94,-600.44 233.94,-600.44 232.96,-606.58 238.39,-601.16 232.36,-610.32"/>
            <text xml:space="preserve" text-anchor="middle" x="252.84" y="-589.08" font-family="Times,serif" font-size="14.00" fill="red">0x09B</text>
        </g>
        <!-- t&#45;&gt;tr -->
        <g id="edge3" class="edge">
            <title>t-&gt;tr</title>
            <path fill="none" stroke="black" d="M222.24,-539.48C222.24,-532.79 222.24,-524.85 222.24,-516.9"/>
            <polygon fill="black" stroke="black" points="225.74,-516.91 222.24,-506.91 218.74,-516.91 225.74,-516.91"/>
            <text xml:space="preserve" text-anchor="middle" x="226.32" y="-518.28" font-family="Times,serif" font-size="14.00"> r</text>
        </g>
        <!-- t&#45;&gt;tr -->
        <g id="edge23" class="edge">
            <title>t-&gt;tr</title>
            <path fill="none" stroke="lightblue" d="M213.15,-540.2C211.88,-537.18 210.77,-534 210.08,-530.88 208.94,-525.74 208.83,-520.32 209.38,-514.98"/>
            <polygon fill="lightblue" stroke="lightblue" points="211.08,-505.44 213.76,-516.08 210.42,-509.17 209.33,-515.29 209.33,-515.29 209.33,-515.29 210.42,-509.17 204.9,-514.5 211.08,-505.44"/>
            <text xml:space="preserve" text-anchor="middle" x="214.16" y="-518.28" font-family="Times,serif" font-size="14.00" fill="blue"> r</text>
        </g>
        <!-- tree2 -->
        <g id="node14" class="node">
            <title>tree2</title>
            <ellipse fill="none" stroke="blue" cx="354.24" cy="-171.02" rx="39.37" ry="29.42"/>
            <text xml:space="preserve" text-anchor="middle" x="354.24" y="-175.22" font-family="Times,serif" font-size="14.00" fill="blue">Chain</text>
            <text xml:space="preserve" text-anchor="middle" x="354.24" y="-158.42" font-family="Times,serif" font-size="14.00" fill="blue">0x0BB</text>
        </g>
        <!-- tree2&#45;&gt;tree2p -->
        <g id="edge28" class="edge">
            <title>tree2-&gt;tree2p</title>
            <path fill="none" stroke="pink" d="M332.8,-196C326.91,-205.51 323.39,-216.48 328.57,-226.23 331.26,-231.32 334.75,-235.98 338.73,-240.23"/>
            <polygon fill="pink" stroke="pink" points="346.03,-247.06 335.65,-243.51 343.26,-244.48 338.72,-240.23 338.72,-240.23 338.72,-240.23 343.26,-244.48 341.8,-236.94 346.03,-247.06"/>
            <text xml:space="preserve" text-anchor="middle" x="348.4" y="-213.63" font-family="Times,serif" font-size="14.00" fill="red">0x0BB</text>
        </g>
        <!-- tree2&#45;&gt;trees -->
        <g id="edge15" class="edge">
            <title>tree2-&gt;trees</title>
            <path fill="none" stroke="blue" d="M335.57,-144.63C328.79,-135.41 321.11,-124.98 314.29,-115.71"/>
            <polygon fill="blue" stroke="blue" points="308.55,-107.89 318.1,-113.28 310.79,-110.94 314.47,-115.95 314.47,-115.95 314.47,-115.95 310.79,-110.94 310.85,-118.61 308.55,-107.89"/>
            <text xml:space="preserve" text-anchor="middle" x="330.98" y="-120" font-family="Times,serif" font-size="14.00" fill="blue"> s</text>
        </g>
        <!-- tree2p&#45;&gt;tre -->
        <g id="edge29" class="edge">
            <title>tree2p-&gt;tre</title>
            <path fill="none" stroke="pink" d="M346.19,-305.05C334.31,-311.69 322.05,-319.11 311.12,-326.82 300.93,-334 290.55,-342.66 281.32,-350.92"/>
            <polygon fill="pink" stroke="pink" points="274.09,-357.53 278.44,-347.46 276.88,-354.97 281.47,-350.78 281.47,-350.78 281.47,-350.78 276.88,-354.97 284.51,-354.1 274.09,-357.53"/>
            <text xml:space="preserve" text-anchor="middle" x="330.18" y="-331.02" font-family="Times,serif" font-size="14.00" fill="red">0x0BF</text>
        </g>
        <!-- tree2p&#45;&gt;trie -->
        <!-- tree2p&#45;&gt;tree2 -->
        <g id="edge14" class="edge">
            <title>tree2p-&gt;tree2</title>
            <path fill="none" stroke="blue" d="M383.34,-236.1C379.31,-227.23 375.05,-217.85 371.07,-209.08"/>
            <polygon fill="blue" stroke="blue" points="367.06,-200.24 375.29,-207.49 368.62,-203.68 371.19,-209.35 371.19,-209.35 371.19,-209.35 368.62,-203.68 367.09,-211.21 367.06,-200.24"/>
            <text xml:space="preserve" text-anchor="middle" x="382.99" y="-213.63" font-family="Times,serif" font-size="14.00" fill="blue"> ε</text>
        </g>
        <!-- trees&#45;&gt;tree2 -->
        <g id="edge27" class="edge">
            <title>trees-&gt;tree2</title>
            <path fill="none" stroke="pink" d="M290.93,-107.02C289.8,-115.24 289.91,-124.93 294.17,-132.6 298.06,-139.62 303.88,-145.49 310.39,-150.34"/>
            <polygon fill="pink" stroke="pink" points="318.55,-155.68 307.72,-153.97 315.38,-153.61 310.18,-150.21 310.18,-150.21 310.18,-150.21 315.38,-153.61 312.64,-146.44 318.55,-155.68"/>
            <text xml:space="preserve" text-anchor="middle" x="303.2" y="-120" font-family="Times,serif" font-size="14.00" fill="red"> ~3</text>
        </g>
    </g>
</svg>
